<svg width="32" height="32" viewBox="0 0 32 32" fill="none" xmlns="http://www.w3.org/2000/svg">
<path d="M16.1607 18.04C16.134 18.04 16.094 18.04 16.0673 18.04C16.0273 18.04 15.974 18.04 15.934 18.04C12.9073 17.9467 10.6406 15.5867 10.6406 12.68C10.6406 9.71997 13.054 7.30664 16.014 7.30664C18.974 7.30664 21.3873 9.71997 21.3873 12.68C21.374 15.6 19.094 17.9467 16.2007 18.04C16.174 18.04 16.174 18.04 16.1607 18.04ZM16.0007 9.29331C14.134 9.29331 12.6273 10.8133 12.6273 12.6666C12.6273 14.4933 14.054 15.9733 15.8673 16.04C15.9073 16.0267 16.0407 16.0267 16.174 16.04C17.9607 15.9467 19.3607 14.48 19.374 12.6666C19.374 10.8133 17.8673 9.29331 16.0007 9.29331Z" fill="#999999"/>
<path d="M16.001 30.333C12.4144 30.333 8.98771 28.9997 6.33438 26.573C6.09438 26.3597 5.98771 26.0397 6.01438 25.733C6.18771 24.1464 7.17438 22.6664 8.81438 21.573C12.7877 18.933 19.2277 18.933 23.1877 21.573C24.8277 22.6797 25.8144 24.1464 25.9877 25.733C26.0277 26.053 25.9077 26.3597 25.6677 26.573C23.0144 28.9997 19.5877 30.333 16.001 30.333ZM8.10771 25.4664C10.321 27.3197 13.1077 28.333 16.001 28.333C18.8944 28.333 21.681 27.3197 23.8944 25.4664C23.6544 24.653 23.0144 23.8664 22.0677 23.2264C18.7877 21.0397 13.2277 21.0397 9.92104 23.2264C8.97438 23.8664 8.34771 24.653 8.10771 25.4664Z" fill="#999999"/>
<path d="M16 30.3334C8.09329 30.3334 1.66663 23.9067 1.66663 16.0001C1.66663 8.09342 8.09329 1.66675 16 1.66675C23.9066 1.66675 30.3333 8.09342 30.3333 16.0001C30.3333 23.9067 23.9066 30.3334 16 30.3334ZM16 3.66675C9.19996 3.66675 3.66663 9.20008 3.66663 16.0001C3.66663 22.8001 9.19996 28.3334 16 28.3334C22.8 28.3334 28.3333 22.8001 28.3333 16.0001C28.3333 9.20008 22.8 3.66675 16 3.66675Z" fill="#999999"/>
</svg>
