<svg width="32" height="32" viewBox="0 0 32 32" fill="none" xmlns="http://www.w3.org/2000/svg">
<path d="M29.3333 30.3333H2.66663C2.11996 30.3333 1.66663 29.8799 1.66663 29.3333C1.66663 28.7866 2.11996 28.3333 2.66663 28.3333H29.3333C29.88 28.3333 30.3333 28.7866 30.3333 29.3333C30.3333 29.8799 29.88 30.3333 29.3333 30.3333Z" fill="#999999"/>
<path d="M19 30.3334H13C12.4533 30.3334 12 29.8801 12 29.3334V5.33341C12 3.04008 13.2667 1.66675 15.4 1.66675H16.6C18.7333 1.66675 20 3.04008 20 5.33341V29.3334C20 29.8801 19.5467 30.3334 19 30.3334ZM14 28.3334H18V5.33341C18 3.80008 17.28 3.66675 16.6 3.66675H15.4C14.72 3.66675 14 3.80008 14 5.33341V28.3334Z" fill="#999999"/>
<path d="M9.33333 30.3334H4C3.45333 30.3334 3 29.8801 3 29.3334V13.3334C3 11.0401 4.17333 9.66675 6.13333 9.66675H7.2C9.16 9.66675 10.3333 11.0401 10.3333 13.3334V29.3334C10.3333 29.8801 9.88 30.3334 9.33333 30.3334ZM5 28.3334H8.33333V13.3334C8.33333 11.6667 7.6 11.6667 7.2 11.6667H6.13333C5.73333 11.6667 5 11.6667 5 13.3334V28.3334Z" fill="#999999"/>
<path d="M28 30.3333H22.6666C22.12 30.3333 21.6666 29.8799 21.6666 29.3333V19.9999C21.6666 17.7066 22.84 16.3333 24.8 16.3333H25.8666C27.8266 16.3333 29 17.7066 29 19.9999V29.3333C29 29.8799 28.5466 30.3333 28 30.3333ZM23.6666 28.3333H27V19.9999C27 18.3333 26.2666 18.3333 25.8666 18.3333H24.8C24.4 18.3333 23.6666 18.3333 23.6666 19.9999V28.3333Z" fill="#999999"/>
</svg>
