<svg width="32" height="32" viewBox="0 0 32 32" fill="none" xmlns="http://www.w3.org/2000/svg">
<path d="M25.7866 19.32L24.4532 17.1066C24.1732 16.6133 23.9199 15.68 23.9199 15.1333V11.76C23.9199 8.62662 22.0799 5.91996 19.4266 4.65329C18.7332 3.42663 17.4532 2.66663 15.9866 2.66663C14.5332 2.66663 13.2266 3.45329 12.5333 4.69329C9.9333 5.98663 8.1333 8.66662 8.1333 11.76V15.1333C8.1333 15.68 7.87996 16.6133 7.59996 17.0933L6.2533 19.32C5.71996 20.2133 5.59996 21.2 5.9333 22.1066C6.2533 23 7.0133 23.6933 7.99996 24.0266C10.5866 24.9066 13.3066 25.3333 16.0266 25.3333C18.7466 25.3333 21.4666 24.9066 24.0532 24.04C24.9866 23.7333 25.7066 23.0266 26.0532 22.1066C26.3999 21.1866 26.3066 20.1733 25.7866 19.32Z" fill="#E9E9E9"/>
<path d="M19.773 26.68C19.213 28.2266 17.733 29.3333 15.9996 29.3333C14.9463 29.3333 13.9063 28.9066 13.173 28.1466C12.7463 27.7466 12.4263 27.2133 12.2396 26.6666C12.413 26.6933 12.5863 26.7066 12.773 26.7333C13.0796 26.7733 13.3996 26.8133 13.7196 26.84C14.4796 26.9066 15.253 26.9466 16.0263 26.9466C16.7863 26.9466 17.5463 26.9066 18.293 26.84C18.573 26.8133 18.853 26.8 19.1196 26.76C19.333 26.7333 19.5463 26.7066 19.773 26.68Z" fill="#E9E9E9"/>
</svg>
