<svg width="32" height="32" viewBox="0 0 32 32" fill="none" xmlns="http://www.w3.org/2000/svg">
<path d="M27.8124 11.1597L18.5724 3.77305C17.1457 2.62638 14.839 2.62638 13.4257 3.75972L4.1857 11.1597C3.1457 11.9864 2.47903 13.733 2.7057 15.0397L4.47903 25.653C4.79903 27.5463 6.61236 29.0797 8.53236 29.0797H23.4657C25.3724 29.0797 27.199 27.533 27.519 25.653L29.2924 15.0397C29.5057 13.733 28.839 11.9864 27.8124 11.1597ZM15.999 20.6663C14.159 20.6663 12.6657 19.173 12.6657 17.333C12.6657 15.493 14.159 13.9997 15.999 13.9997C17.839 13.9997 19.3324 15.493 19.3324 17.333C19.3324 19.173 17.839 20.6663 15.999 20.6663Z" fill="white"/>
</svg>
