<svg width="35" height="32" viewBox="0 0 35 32" fill="none" xmlns="http://www.w3.org/2000/svg">
<path d="M31.5 10.4C31.5 11.4609 31.0391 12.4783 30.2186 13.2284C29.3981 13.9786 28.2853 14.4 27.125 14.4C25.235 14.4 23.625 13.296 23.03 11.776C22.26 12.4 21.245 12.8 20.125 12.8C19.145 12.8 18.235 12.496 17.5 12C16.765 12.496 15.8725 12.8 14.875 12.8C13.755 12.8 12.74 12.4 11.97 11.776C11.375 13.296 9.765 14.4 7.875 14.4C6.71468 14.4 5.60188 13.9786 4.78141 13.2284C3.96094 12.4783 3.5 11.4609 3.5 10.4C3.5 8.416 5.0925 6.768 7.175 6.464C7.07 6.192 7 5.904 7 5.6C7 4.96348 7.27656 4.35303 7.76884 3.90294C8.26113 3.45286 8.92881 3.2 9.625 3.2C9.975 3.2 10.3075 3.264 10.605 3.376C10.9025 2.352 11.9175 1.6 13.125 1.6C13.5625 1.6 14 1.712 14.315 1.872C14.875 0.8 16.0825 0 17.5 0C18.9175 0 20.125 0.8 20.685 1.872C21 1.712 21.4375 1.6 21.875 1.6C23.0825 1.6 24.0975 2.352 24.395 3.376C24.6925 3.264 25.025 3.2 25.375 3.2C26.0712 3.2 26.7389 3.45286 27.2312 3.90294C27.7234 4.35303 28 4.96348 28 5.6C28 5.904 27.93 6.192 27.825 6.464C29.9075 6.768 31.5 8.416 31.5 10.4ZM14 16C13.5359 16 13.0908 16.1686 12.7626 16.4686C12.4344 16.7687 12.25 17.1757 12.25 17.6C12.25 18.0243 12.4344 18.4313 12.7626 18.7314C13.0908 19.0314 13.5359 19.2 14 19.2C14.4641 19.2 14.9092 19.0314 15.2374 18.7314C15.5656 18.4313 15.75 18.0243 15.75 17.6C15.75 17.1757 15.5656 16.7687 15.2374 16.4686C14.9092 16.1686 14.4641 16 14 16ZM21 16C20.5359 16 20.0908 16.1686 19.7626 16.4686C19.4344 16.7687 19.25 17.1757 19.25 17.6C19.25 18.0243 19.4344 18.4313 19.7626 18.7314C20.0908 19.0314 20.5359 19.2 21 19.2C21.4641 19.2 21.9092 19.0314 22.2374 18.7314C22.5656 18.4313 22.75 18.0243 22.75 17.6C22.75 17.1757 22.5656 16.7687 22.2374 16.4686C21.9092 16.1686 21.4641 16 21 16ZM31.9025 13.856C30.7825 15.152 29.0675 16 27.125 16C26.3375 16 25.585 15.84 24.8675 15.568C24.85 19.648 24.2025 24.576 21.7875 27.12C20.8775 28.064 19.775 28.576 18.375 28.736V25.6H16.625V28.736C15.225 28.576 14.1225 28.08 13.2125 27.12C10.78 24.56 10.1325 19.664 10.115 15.584C9.415 15.84 8.6625 16 7.875 16C5.9325 16 4.2175 15.152 3.0975 13.856C1.54 15.28 0 16 0 16C0 16 1.75 19.2 5.25 19.2C5.88 19.2 6.37 19.136 6.79 19.056C7.385 25.168 9.765 32 17.5 32C25.235 32 27.615 25.168 28.21 19.056C28.63 19.136 29.12 19.2 29.75 19.2C33.25 19.2 35 16 35 16C35 16 33.46 15.28 31.9025 13.856Z" fill="white"/>
</svg>
