<svg width="30" height="29" viewBox="0 0 30 29" fill="none" xmlns="http://www.w3.org/2000/svg">
<path d="M11.2618 25.6622C11.0243 25.6622 10.7868 25.5777 10.5993 25.3965L4.33682 19.3463C3.97432 18.9961 3.97432 18.4164 4.33682 18.0662C4.69932 17.716 5.29932 17.716 5.66182 18.0662L11.9243 24.1164C12.2868 24.4666 12.2868 25.0463 11.9243 25.3965C11.7368 25.5656 11.4993 25.6622 11.2618 25.6622Z" fill="white"/>
<path d="M11.2622 25.6621C10.7497 25.6621 10.3247 25.2515 10.3247 24.7564V4.2267C10.3247 3.73157 10.7497 3.32097 11.2622 3.32097C11.7747 3.32097 12.1997 3.73157 12.1997 4.2267V24.7564C12.1997 25.2515 11.7747 25.6621 11.2622 25.6621Z" fill="white"/>
<path d="M25.0119 11.1826C24.7744 11.1826 24.5369 11.0981 24.3494 10.9169L18.0869 4.8667C17.7244 4.51649 17.7244 3.93682 18.0869 3.58661C18.4494 3.2364 19.0494 3.2364 19.4119 3.58661L25.6744 9.63682C26.0369 9.98704 26.0369 10.5667 25.6744 10.9169C25.4869 11.0981 25.2494 11.1826 25.0119 11.1826Z" fill="white"/>
<path d="M18.7377 25.6621C18.2252 25.6621 17.8002 25.2515 17.8002 24.7564V4.2267C17.8002 3.73157 18.2252 3.32097 18.7377 3.32097C19.2502 3.32097 19.6752 3.73157 19.6752 4.2267V24.7564C19.6752 25.2515 19.2627 25.6621 18.7377 25.6621Z" fill="white"/>
</svg>
