<svg width="9" height="10" viewBox="0 0 9 10" fill="none" xmlns="http://www.w3.org/2000/svg">
<path fill-rule="evenodd" clip-rule="evenodd" d="M0 0.713544C0 0.5243 0.118527 0.342808 0.329505 0.208992C0.540484 0.0751769 0.826631 0 1.125 0H7.875C8.17337 0 8.45952 0.0751769 8.6705 0.208992C8.88147 0.342808 9 0.5243 9 0.713544C9 0.902788 8.88147 1.08428 8.6705 1.2181C8.45952 1.35191 8.17337 1.42709 7.875 1.42709H6.14813C6.35192 1.65057 6.50672 1.89062 6.60825 2.14063H7.875C8.17337 2.14063 8.45952 2.21581 8.6705 2.34962C8.88147 2.48344 9 2.66493 9 2.85418C9 3.04342 8.88147 3.22491 8.6705 3.35873C8.45952 3.49254 8.17337 3.56772 7.875 3.56772H6.60825C6.39745 4.08378 5.96332 4.55218 5.3549 4.91998C4.74647 5.28778 3.98801 5.54034 3.16519 5.64913L6.561 8.88041C6.64601 8.95833 6.70571 9.04621 6.7366 9.13891C6.76749 9.23162 6.76896 9.3273 6.74092 9.42037C6.71288 9.51344 6.6559 9.60204 6.5733 9.68099C6.4907 9.75994 6.38413 9.82767 6.25982 9.88022C6.1355 9.93277 5.99593 9.96908 5.84925 9.98705C5.70257 10.005 5.55171 10.0043 5.40549 9.98487C5.25926 9.96547 5.1206 9.92778 4.99758 9.87402C4.87457 9.82025 4.76966 9.75149 4.689 9.67173L0.189 5.39047C0.0761129 5.28301 0.0113142 5.15814 0.00151169 5.02917C-0.00829083 4.90019 0.0372701 4.77194 0.133338 4.6581C0.229406 4.54425 0.372379 4.44908 0.547018 4.38271C0.721657 4.31635 0.921416 4.28129 1.125 4.28126H2.25C3.0825 4.28126 3.80981 3.99442 4.19906 3.56772H1.125C0.826631 3.56772 0.540484 3.49254 0.329505 3.35873C0.118527 3.22491 0 3.04342 0 2.85418C0 2.66493 0.118527 2.48344 0.329505 2.34962C0.540484 2.21581 0.826631 2.14063 1.125 2.14063H4.19906C4.00163 1.92359 3.71753 1.74337 3.37537 1.61811C3.03321 1.49284 2.64507 1.42696 2.25 1.42709H1.125C0.826631 1.42709 0.540484 1.35191 0.329505 1.2181C0.118527 1.08428 0 0.902788 0 0.713544Z" fill="white"/>
</svg>
